ply
format ascii 1.0
comment Irregular Fig.1 foreground glossy puddle, world-space coordinates
element vertex 17
property float x
property float y
property float z
element face 16
property list uchar int vertex_indices
end_header
4.7100 0.2050 3.9700
5.7800 0.2050 3.9700
5.6600 0.2050 3.5500
5.3100 0.2050 3.2200
4.9200 0.2050 3.0900
4.5300 0.2050 3.1800
4.1300 0.2050 3.0600
3.7900 0.2050 3.3200
3.6400 0.2050 3.7200
3.7200 0.2050 4.0700
3.8800 0.2050 4.3900
4.1800 0.2050 4.7600
4.6100 0.2050 4.9000
4.9600 0.2050 4.7800
5.2600 0.2050 4.9000
5.5900 0.2050 4.6500
5.7100 0.2050 4.3000
3 0 1 2
3 0 2 3
3 0 3 4
3 0 4 5
3 0 5 6
3 0 6 7
3 0 7 8
3 0 8 9
3 0 9 10
3 0 10 11
3 0 11 12
3 0 12 13
3 0 13 14
3 0 14 15
3 0 15 16
3 0 16 1
